<svg xmlns="http://www.w3.org/2000/svg" width="64" height="64" viewBox="0 0 64 64">
  <g fill="none" fill-rule="evenodd">
    <polygon points="1 0 65 0 65 64 1 64"/>
    <path fill="#EC4C4C" fill-rule="nonzero" d="M32,-2.27373675e-13 C14.336,-2.27373675e-13 0,14.336 0,32 C0,49.664 14.336,64 32,64 C49.664,64 64,49.664 64,32 C64,14.336 49.664,-2.27373675e-13 32,-2.27373675e-13 Z"/>
    <path fill="#FFF" fill-rule="nonzero" d="M32.0311957,25.553507 L40.7060231,16.8786797 C41.877596,15.7071068 43.7770909,15.7071068 44.9486638,16.8786797 L47.1837117,19.1137276 C48.3552846,20.2853005 48.3552846,22.1847954 47.1837117,23.3563683 L38.5088843,32.0311957 L47.1837117,40.7060231 C48.3552846,41.877596 48.3552846,43.7770909 47.1837117,44.9486638 L44.9486638,47.1837117 C43.7770909,48.3552846 41.877596,48.3552846 40.7060231,47.1837117 L32.0311957,38.5088843 L23.3563683,47.1837117 C22.1847954,48.3552846 20.2853005,48.3552846 19.1137276,47.1837117 L16.8786797,44.9486638 C15.7071068,43.7770909 15.7071068,41.877596 16.8786797,40.7060231 L25.553507,32.0311957 L16.8786797,23.3563683 C15.7071068,22.1847954 15.7071068,20.2853005 16.8786797,19.1137276 L19.1137276,16.8786797 C20.2853005,15.7071068 22.1847954,15.7071068 23.3563683,16.8786797 L32.0311957,25.553507 Z"/>
  </g>
</svg>
