<svg xmlns="http://www.w3.org/2000/svg" width="135" height="121" viewBox="0 0 135 121">
  <g fill="none" fill-rule="evenodd" transform="translate(-12 -13)">
    <polygon points="0 0 160 0 160 160 0 160"/>
    <circle cx="79.574" cy="80.426" r="20" fill="#000" fill-rule="nonzero"/>
    <path fill="#000" fill-rule="nonzero" d="M133.021277,26.9503546 L111.842979,26.9503546 L103.558723,17.9503546 C101.086809,15.2170213 97.4791489,13.6170213 93.7378723,13.6170213 L65.4110638,13.6170213 C61.6697872,13.6170213 58.0621277,15.2170213 55.5234043,17.9503546 L47.3059574,26.9503546 L26.1276596,26.9503546 C18.7787234,26.9503546 12.7659574,32.9503546 12.7659574,40.2836879 L12.7659574,120.283688 C12.7659574,127.617021 18.7787234,133.617021 26.1276596,133.617021 L133.021277,133.617021 C140.370213,133.617021 146.382979,127.617021 146.382979,120.283688 L146.382979,40.2836879 C146.382979,32.9503546 140.370213,26.9503546 133.021277,26.9503546 Z M79.5744681,113.617021 C61.1353191,113.617021 46.1702128,98.6836879 46.1702128,80.2836879 C46.1702128,61.8836879 61.1353191,46.9503546 79.5744681,46.9503546 C98.013617,46.9503546 112.978723,61.8836879 112.978723,80.2836879 C112.978723,98.6836879 98.013617,113.617021 79.5744681,113.617021 Z"/>
  </g>
</svg>
