<svg xmlns="http://www.w3.org/2000/svg" width="55" height="55" viewBox="0 0 55 55">
  <path fill="#5CB461" d="M31.5362319,5.56521739 C16.6882319,5.56521739 4.63768116,17.6157681 4.63768116,32.4637681 C4.63768116,47.3117681 16.6882319,59.3623188 31.5362319,59.3623188 C46.3842319,59.3623188 58.4347826,47.3117681 58.4347826,32.4637681 C58.4347826,17.6157681 46.3842319,5.56521739 31.5362319,5.56521739 Z M24.2467246,44.0032464 L14.5901449,34.3466667 C13.5411014,33.2976232 13.5411014,31.6030145 14.5901449,30.553971 C15.6391884,29.5049275 17.3337971,29.5049275 18.3828406,30.553971 L26.1565217,38.3007536 L44.6627246,19.7945507 C45.7117681,18.7455072 47.4063768,18.7455072 48.4554203,19.7945507 C49.5044638,20.8435942 49.5044638,22.5382029 48.4554203,23.5872464 L28.0394203,44.0032464 C27.0172754,45.0522899 25.2957681,45.0522899 24.2467246,44.0032464 Z" transform="translate(-4 -5)"/>
</svg>
